<svg width="1440" height="2560" viewBox="0 0 1440 2560" fill="none" xmlns="http://www.w3.org/2000/svg">
<path d="M1440 0H0V2560H1440V0Z" fill="url(#paint0_linear_4_6)"/>
<mask id="mask0_4_6" style="mask-type:luminance" maskUnits="userSpaceOnUse" x="0" y="0" width="1440" height="2560">
<path d="M1440 0H0V2560H1440V0Z" fill="white"/>
</mask>
<g mask="url(#mask0_4_6)">
<path opacity="0.1" d="M1163.12 1148.7L1127.03 1130.69L1146.54 1091.59C1149.86 1084.95 1147.16 1076.87 1140.51 1073.56C1133.87 1070.24 1125.79 1072.94 1122.48 1079.59L1102.97 1118.69L1063.87 1099.18C1057.23 1095.86 1049.15 1098.56 1045.84 1105.21C1042.52 1111.85 1045.22 1119.93 1051.87 1123.24L1090.97 1142.75L1072.96 1178.84C1069.64 1185.48 1072.34 1193.56 1078.99 1196.87C1085.63 1200.19 1093.71 1197.49 1097.02 1190.84L1115.03 1154.75L1151.12 1172.76C1157.76 1176.08 1165.84 1173.38 1169.15 1166.73C1172.47 1160.09 1169.77 1152.01 1163.12 1148.7Z" fill="white"/>
<path opacity="0.2" d="M261.4 1792.73C259.48 1788.36 254.39 1786.38 250.02 1788.29L224.32 1799.57L213.04 1773.87C211.12 1769.5 206.03 1767.52 201.66 1769.43C197.29 1771.35 195.31 1776.44 197.22 1780.81L208.5 1806.51L184.78 1816.92C180.41 1818.84 178.43 1823.93 180.34 1828.3C182.26 1832.67 187.35 1834.65 191.72 1832.74L215.44 1822.33L225.85 1846.05C227.77 1850.42 232.86 1852.4 237.23 1850.49C241.6 1848.57 243.58 1843.48 241.67 1839.11L231.26 1815.39L256.96 1804.11C261.33 1802.19 263.31 1797.1 261.4 1792.73Z" fill="white"/>
<path opacity="0.2" d="M576.88 179.1L593.14 173.79L598.89 191.4C599.87 194.39 603.09 196.03 606.08 195.05C609.07 194.07 610.71 190.85 609.73 187.86L603.98 170.25L621.59 164.5C624.58 163.52 626.22 160.3 625.24 157.31C624.26 154.32 621.04 152.68 618.05 153.66L600.44 159.41L595.13 143.15C594.15 140.16 590.93 138.52 587.94 139.5C584.95 140.48 583.31 143.7 584.29 146.69L589.6 162.95L573.34 168.26C570.35 169.24 568.71 172.46 569.69 175.45C570.67 178.44 573.89 180.08 576.88 179.1Z" fill="white"/>
<path opacity="0.1" d="M1391.96 1901.36C1390.76 1898.38 1387.38 1896.93 1384.4 1898.13L1255.3 1949.88C1253.87 1950.45 1252.72 1951.57 1252.12 1952.99C1251.51 1954.41 1251.5 1956.01 1252.07 1957.44L1303.82 2086.54C1304.73 2088.81 1306.91 2090.19 1309.22 2090.19C1309.94 2090.19 1310.67 2090.06 1311.38 2089.77L1440.48 2038.02C1441.91 2037.45 1443.06 2036.33 1443.66 2034.91C1444.27 2033.49 1444.28 2031.89 1443.71 2030.46L1391.96 1901.36ZM1312.45 2076.82L1265.02 1958.51L1383.33 1911.08L1430.76 2029.39L1312.45 2076.82Z" fill="white"/>
<path opacity="0.1" d="M125.69 808.7L-0.310051 749.8C-1.71005 749.15 -3.31005 749.08 -4.75005 749.6C-6.20005 750.13 -7.38005 751.21 -8.03005 752.6L-66.9401 878.6C-68.3001 881.51 -67.0401 884.97 -64.1401 886.33L61.86 945.24C62.66 945.61 63.4899 945.79 64.3199 945.79C66.5099 945.79 68.5999 944.55 69.59 942.44L128.5 816.44C129.86 813.53 128.6 810.07 125.7 808.71L125.69 808.7ZM61.5199 932.24L-53.9501 878.26L0.0299454 762.79L115.5 816.77L61.5199 932.23V932.24Z" fill="white"/>
<path opacity="0.2" d="M570.13 1034.16L538.86 960.08C538.51 959.26 537.85 958.61 537.03 958.27C536.21 957.93 535.28 957.94 534.46 958.29L460.38 989.56C458.67 990.28 457.87 992.25 458.59 993.96L489.86 1068.04C490.03 1068.44 490.27 1068.8 490.57 1069.1C490.89 1069.42 491.27 1069.68 491.69 1069.85C492.52 1070.19 493.44 1070.18 494.26 1069.83L568.34 1038.56C570.05 1037.84 570.85 1035.87 570.13 1034.16ZM494.75 1062.34L466.09 994.46L533.97 965.8L562.63 1033.68L494.75 1062.34Z" fill="white"/>
<path opacity="0.2" d="M552.47 2449.44L477.83 2419.54C477 2419.21 476.08 2419.22 475.26 2419.57C474.44 2419.92 473.79 2420.58 473.46 2421.41L443.56 2496.05C442.87 2497.77 443.71 2499.73 445.43 2500.42L520.07 2530.32C520.47 2530.48 520.9 2530.56 521.32 2530.56C521.77 2530.56 522.22 2530.47 522.64 2530.29C523.46 2529.94 524.11 2529.28 524.44 2528.45L554.34 2453.81C555.03 2452.09 554.19 2450.13 552.47 2449.44ZM519.45 2522.83L451.05 2495.43L478.45 2427.03L546.85 2454.43L519.45 2522.83Z" fill="white"/>
<path opacity="0.2" d="M1046.24 1860.24C1022.5 1860.24 1003.19 1879.55 1003.19 1903.29C1003.19 1927.03 1022.5 1946.33 1046.24 1946.33C1069.98 1946.33 1089.28 1927.02 1089.28 1903.29C1089.28 1879.56 1069.97 1860.24 1046.24 1860.24ZM1046.24 1937.55C1027.35 1937.55 1011.98 1922.18 1011.98 1903.29C1011.98 1884.4 1027.35 1869.03 1046.24 1869.03C1065.13 1869.03 1080.5 1884.4 1080.5 1903.29C1080.5 1922.18 1065.13 1937.55 1046.24 1937.55Z" fill="white"/>
<path opacity="0.2" d="M1437.98 458.99C1465.95 458.99 1488.71 436.23 1488.71 408.26C1488.71 380.29 1465.95 357.53 1437.98 357.53C1410.01 357.53 1387.25 380.29 1387.25 408.26C1387.25 436.23 1410.01 458.99 1437.98 458.99ZM1437.98 367.88C1460.25 367.88 1478.36 386 1478.36 408.26C1478.36 430.52 1460.24 448.64 1437.98 448.64C1415.72 448.64 1397.6 430.52 1397.6 408.26C1397.6 386 1415.72 367.88 1437.98 367.88Z" fill="white"/>
<path opacity="0.1" d="M1329.77 69.9199L1221.99 116.02L1315.8 186.31L1329.77 69.9199ZM1242.92 118.53L1317.14 86.7799L1307.52 166.93L1242.92 118.53Z" fill="white"/>
<path opacity="0.2" d="M735.45 1400.03L770.29 1324.44L687.41 1332.06L735.45 1400.03ZM734.08 1385.13L701 1338.33L758.07 1333.08L734.08 1385.13Z" fill="white"/>
<path opacity="0.1" d="M1192.86 763.41C1194.89 767.33 1199.72 768.86 1203.65 766.83L1292.42 720.78C1296.34 718.75 1297.87 713.92 1295.84 709.99L1249.79 621.22C1247.76 617.3 1242.93 615.77 1239 617.8L1150.23 663.85C1146.31 665.88 1144.78 670.71 1146.81 674.64L1192.86 763.41ZM1239.26 635.69L1277.94 710.25L1203.38 748.93L1164.7 674.37L1239.26 635.69Z" fill="white"/>
<path opacity="0.1" d="M655.82 1682.32C623.84 1682.32 597.82 1708.34 597.82 1740.32C597.82 1772.3 623.84 1798.32 655.82 1798.32C687.8 1798.32 713.82 1772.3 713.82 1740.32C713.82 1708.34 687.8 1682.32 655.82 1682.32ZM655.82 1782.32C632.66 1782.32 613.82 1763.48 613.82 1740.32C613.82 1717.16 632.66 1698.32 655.82 1698.32C678.98 1698.32 697.82 1717.16 697.82 1740.32C697.82 1763.48 678.98 1782.32 655.82 1782.32Z" fill="white"/>
<path opacity="0.1" d="M389.87 2067.19L302.27 2018.96C299.77 2017.58 296.72 2017.64 294.27 2019.12C291.82 2020.6 290.35 2023.27 290.41 2026.13L292.44 2126.11C292.5 2128.97 294.08 2131.58 296.58 2132.96C299.08 2134.34 302.13 2134.28 304.58 2132.8L390.15 2081.05C392.6 2079.57 394.07 2076.9 394.01 2074.04C393.95 2071.18 392.37 2068.57 389.87 2067.19ZM308.16 2111.93L306.69 2039.66L370.01 2074.52L308.16 2111.93Z" fill="white"/>
<path opacity="0.2" d="M973.19 1466C970.11 1462.83 965.05 1462.75 961.88 1465.83L931.73 1495.07L902.49 1464.92C899.41 1461.75 894.35 1461.67 891.18 1464.75C888.01 1467.83 887.93 1472.89 891.01 1476.06L920.25 1506.21L890.1 1535.45C886.93 1538.53 886.85 1543.59 889.93 1546.76C893.01 1549.93 898.07 1550.01 901.24 1546.93L931.39 1517.69L960.63 1547.84C963.71 1551.01 968.77 1551.09 971.94 1548.01C975.11 1544.93 975.19 1539.87 972.11 1536.7L942.87 1506.55L973.02 1477.31C976.19 1474.23 976.27 1469.17 973.19 1466Z" fill="white"/>
<path opacity="0.1" d="M207.25 216.15C211.12 214.02 212.54 209.16 210.41 205.29L190.18 168.48L226.99 148.25C230.86 146.12 232.28 141.26 230.15 137.39C228.02 133.52 223.16 132.1 219.29 134.23L182.48 154.46L162.25 117.65C160.12 113.78 155.26 112.36 151.39 114.49C147.52 116.62 146.1 121.48 148.23 125.35L168.46 162.16L131.65 182.39C127.78 184.52 126.36 189.38 128.49 193.25C130.62 197.12 135.48 198.54 139.35 196.41L176.16 176.18L196.39 212.99C198.52 216.86 203.38 218.28 207.25 216.15Z" fill="white"/>
<path opacity="0.05" d="M1568.94 1360.04L1467.92 1187.43C1463.46 1179.8 1453.66 1177.24 1446.03 1181.7L1273.42 1282.72C1265.79 1287.18 1263.23 1296.98 1267.69 1304.61L1368.71 1477.22C1373.17 1484.85 1382.97 1487.41 1390.6 1482.95L1563.21 1381.93C1570.84 1377.47 1573.4 1367.67 1568.94 1360.04ZM1388.24 1447.25L1303.39 1302.25L1448.39 1217.4L1533.24 1362.4L1388.24 1447.25Z" fill="white"/>
<path opacity="0.1" d="M976.32 -1.18018C976.32 -49.9802 936.62 -89.6802 887.82 -89.6802C839.02 -89.6802 799.32 -49.9802 799.32 -1.18018C799.32 47.6198 839.02 87.3198 887.82 87.3198C936.62 87.3198 976.32 47.6198 976.32 -1.18018ZM887.82 62.9098C852.48 62.9098 823.73 34.1598 823.73 -1.18018C823.73 -36.5202 852.48 -65.2702 887.82 -65.2702C923.16 -65.2702 951.91 -36.5202 951.91 -1.18018C951.91 34.1598 923.16 62.9098 887.82 62.9098Z" fill="white"/>
<path opacity="0.05" d="M397.4 1261.84C392.56 1258.8 386.47 1258.57 381.41 1261.24L204.59 1354.7C199.54 1357.37 196.29 1362.53 196.08 1368.25C195.87 1373.96 198.72 1379.35 203.56 1382.4L372.91 1488.8C377.75 1491.84 383.84 1492.07 388.9 1489.4C393.95 1486.73 397.2 1481.57 397.41 1475.85L404.88 1275.99C405.09 1270.28 402.24 1264.89 397.4 1261.84ZM366.46 1446.96L244.04 1370.05L371.86 1302.49L366.46 1446.97V1446.96Z" fill="white"/>
<path opacity="0.1" d="M1287.93 2398.47L1345.06 2336.89C1351.07 2330.41 1350.69 2320.29 1344.21 2314.28C1337.73 2308.27 1327.61 2308.65 1321.6 2315.13L1264.47 2376.71L1202.89 2319.58C1196.41 2313.57 1186.29 2313.95 1180.28 2320.43C1174.27 2326.91 1174.65 2337.03 1181.13 2343.04L1242.71 2400.17L1185.58 2461.75C1179.57 2468.23 1179.95 2478.35 1186.43 2484.36C1192.91 2490.37 1203.03 2489.99 1209.04 2483.51L1266.17 2421.93L1327.75 2479.06C1334.23 2485.07 1344.35 2484.69 1350.36 2478.21C1356.37 2471.73 1355.99 2461.61 1349.51 2455.6L1287.93 2398.47Z" fill="white"/>
</g>
<defs>
<linearGradient id="paint0_linear_4_6" x1="720" y1="0" x2="720" y2="2560" gradientUnits="userSpaceOnUse">
<stop stop-color="#CC66FF"/>
<stop offset="1" stop-color="#8C40F8"/>
</linearGradient>
</defs>
</svg>
