<svg width="124" height="174" viewBox="0 0 124 174" fill="none" xmlns="http://www.w3.org/2000/svg">
<g filter="url(#filter0_d_22_571)">
<path d="M12.4276 165.875H112.333C116.471 165.875 119.826 162.501 119.826 158.34V72.9395C119.826 68.778 116.471 65.4042 112.333 65.4042H104.84V42.7983C104.84 19.2534 85.7927 0.0981445 62.3803 0.0981445C38.968 0.0981445 19.9205 19.2534 19.9205 42.7983V65.4042H12.4276C8.28952 65.4042 4.93469 68.778 4.93469 72.9395V158.34C4.93469 162.501 8.28952 165.875 12.4276 165.875ZM69.8733 118.144V128.199C69.8733 132.36 66.5184 135.734 62.3803 135.734C58.2423 135.734 54.8874 132.36 54.8874 128.199V118.144C51.8563 115.851 49.8922 112.205 49.8922 108.104C49.8922 101.179 55.4944 95.5455 62.3803 95.5455C69.2663 95.5455 74.8685 101.179 74.8685 108.104C74.8685 112.205 72.9044 115.851 69.8733 118.144ZM34.9063 42.7983C34.9063 27.5634 47.2312 15.1688 62.3803 15.1688C77.5295 15.1688 89.8543 27.5634 89.8543 42.7983V65.4042H34.9063V42.7983Z" fill="#6F96FC"/>
</g>
<defs>
<filter id="filter0_d_22_571" x="0.934692" y="0.0981445" width="122.891" height="173.777" filterUnits="userSpaceOnUse" color-interpolation-filters="sRGB">
<feFlood flood-opacity="0" result="BackgroundImageFix"/>
<feColorMatrix in="SourceAlpha" type="matrix" values="0 0 0 0 0 0 0 0 0 0 0 0 0 0 0 0 0 0 127 0" result="hardAlpha"/>
<feOffset dy="4"/>
<feGaussianBlur stdDeviation="2"/>
<feComposite in2="hardAlpha" operator="out"/>
<feColorMatrix type="matrix" values="0 0 0 0 0 0 0 0 0 0 0 0 0 0 0 0 0 0 0.25 0"/>
<feBlend mode="normal" in2="BackgroundImageFix" result="effect1_dropShadow_22_571"/>
<feBlend mode="normal" in="SourceGraphic" in2="effect1_dropShadow_22_571" result="shape"/>
</filter>
</defs>
</svg>
